<svg
      className="logo-svg"
      version="1.1"
      id="Layer_1"
      xmlns="http://www.w3.org/2000/svg"
      x="1px"
      y="1px"
      width="110"
      height="110"
      viewBox="0 0 1024 1024"
      enableBackground="new 0 0 1024 1024"
      xmlSpace="preserve"
    >
      <path fill="currentColor" opacity="1.000000" stroke="none" 
        d="
      M414.976074,674.096069 
        C363.616760,641.563354 333.836273,595.296875 325.114319,535.674683 
        C323.242340,522.877991 323.359497,509.731354 324.405914,496.759644 
        C325.207703,486.820129 335.735931,482.215393 344.052032,487.826233 
        C347.059021,489.855042 348.092926,492.751923 348.442017,496.321594 
        C349.561432,507.768860 348.573975,519.313110 350.181396,530.726868 
        C350.829834,535.330994 351.456024,539.938232 352.723236,544.521606 
        C352.723236,534.557190 352.717468,524.592712 352.724609,514.628296 
        C352.735138,499.963715 352.632202,485.297363 352.848602,470.635742 
        C352.910095,466.469177 351.500427,464.830414 347.389160,465.246857 
        C345.410278,465.447296 343.392578,465.306000 341.393768,465.261383 
        C334.448425,465.106537 332.336334,462.351990 334.469940,455.673737 
        C339.381470,440.300751 347.146912,426.319824 356.341431,413.178894 
        C381.256653,377.569733 413.876343,351.929810 455.359222,338.244598 
        C475.405609,331.631317 496.102570,327.895538 517.246704,328.940033 
        C568.764343,331.484924 612.550537,351.356384 648.475891,388.558136 
        C674.313904,415.314087 690.769958,446.820343 697.587891,483.361664 
        C698.227234,486.788300 698.625122,490.276520 698.877625,493.754822 
        C699.242676,498.784821 695.667542,503.201141 690.695801,504.177948 
        C683.624756,505.567169 677.837524,503.004822 675.927246,497.150848 
        C673.606384,490.038544 671.864929,482.738007 669.575562,475.614380 
        C665.942017,464.308411 662.289062,462.582703 649.846924,466.039642 
        C652.141479,475.306763 657.128723,483.457306 660.774597,492.136169 
        C665.287781,502.879456 670.431763,513.356201 675.098206,524.037659 
        C676.274048,526.729126 677.756042,527.964783 680.714783,527.775330 
        C683.868530,527.573242 687.044739,527.681519 690.210510,527.714478 
        C696.228394,527.777161 698.143616,529.702209 698.357849,535.844666 
        C698.699890,545.652710 696.470215,555.106323 693.490417,564.266602 
        C669.745422,637.262146 621.061768,683.514221 545.351807,698.710388 
        C500.716187,707.669556 458.293457,698.778137 418.754272,676.273438 
        C417.596588,675.614563 416.445770,674.943604 414.976074,674.096069 
      M496.681641,355.298645 
        C468.509155,358.020691 443.027283,368.067719 420.033508,384.280060 
        C404.384918,395.313568 391.587677,409.286530 380.554443,424.950928 
        C375.699432,431.843811 375.279297,431.693665 380.177124,438.589661 
        C399.855286,466.296173 420.559204,493.241943 441.028137,520.361206 
        C441.621460,521.147339 441.921295,522.636902 443.937653,522.090759 
        C443.937653,507.835571 443.950104,493.521454 443.933563,479.207306 
        C443.921051,468.378723 443.803436,457.549774 443.865082,446.721771 
        C443.899445,440.686249 445.994232,438.742950 452.059418,438.677460 
        C454.891205,438.646881 457.723785,438.653076 460.555664,438.679840 
        C467.381439,438.744354 469.045319,440.441620 469.363220,447.156128 
        C470.450775,470.126434 470.198395,493.112610 470.257324,516.094971 
        C470.303467,534.087158 470.457794,552.081604 470.215881,570.070312 
        C470.149933,574.973083 471.360901,577.190369 476.589874,576.702332 
        C480.553375,576.332397 484.579559,576.645386 488.577820,576.634033 
        C497.573578,576.608521 506.571747,576.678772 515.563904,576.481201 
        C518.896851,576.408020 522.083618,576.129517 522.058289,571.082886 
        C521.888611,537.265686 521.918518,503.447296 521.979614,469.629486 
        C521.986084,466.036652 520.383057,465.015564 517.103699,465.095917 
        C511.609680,465.230560 506.109558,465.151489 500.612366,465.111176 
        C483.909027,464.988678 483.909119,464.979156 483.760651,448.342468 
        C483.688019,440.207825 485.162781,438.689667 493.258453,438.684387 
        C544.069824,438.651428 594.881165,438.629639 645.692566,438.592346 
        C648.109619,438.590576 650.571655,438.783325 653.527954,437.649811 
        C634.954590,407.139191 610.200928,384.117615 578.275085,369.159668 
        C552.743103,357.197418 525.833618,352.167053 496.681641,355.298645 
      M546.410522,650.073914 
        C544.757446,651.555542 542.711914,651.393066 540.721680,651.403992 
        C508.070679,651.583862 475.419708,651.754822 442.768707,651.930115 
        C438.557892,651.952759 434.314240,651.142212 429.985260,652.208923 
        C430.324554,652.683960 430.466431,652.989563 430.699707,653.187195 
        C431.206696,653.616699 431.726776,654.049194 432.299622,654.379822 
        C467.089172,674.460938 504.545349,680.437500 543.664978,673.156006 
        C581.262512,666.157898 611.657471,646.105591 636.408142,617.201416 
        C650.862000,600.321960 659.570251,580.375916 667.395935,559.928528 
        C669.396484,554.701538 669.175781,554.273193 663.519165,554.263611 
        C646.855286,554.235352 630.189392,554.396179 613.528992,554.153381 
        C609.154846,554.089722 606.816711,555.672913 605.208679,559.570557 
        C600.953186,569.885071 596.692261,580.208923 592.008423,590.332458 
        C584.963928,605.558533 587.765442,603.003845 572.374390,603.315430 
        C571.208557,603.339050 570.039490,603.347961 568.875488,603.291138 
        C562.531494,602.981506 559.820862,599.061584 562.245605,593.236450 
        C566.212341,583.707031 570.453491,574.292175 574.516663,564.802368 
        C575.870361,561.641052 577.561096,558.574646 578.158020,554.919373 
        C575.826782,553.904053 573.650513,554.355408 571.549194,554.280396 
        C566.034668,554.083679 564.009827,552.170837 563.866638,546.721436 
        C563.770386,543.057739 563.749634,539.387268 563.852539,535.724365 
        C564.007019,530.225342 566.331238,527.966309 571.938660,527.847107 
        C576.436096,527.751404 580.940491,527.688232 585.434448,527.835815 
        C588.315674,527.930420 590.000610,526.923401 591.149902,524.173645 
        C598.856262,505.736267 606.703247,487.357666 614.474792,468.947418 
        C614.904724,467.928955 615.619202,466.838501 614.694946,465.616760 
        C612.868713,464.633301 610.832214,465.031433 608.863892,465.024567 
        C591.034485,464.962463 573.204773,464.948578 555.375305,464.892426 
        C548.292969,464.870117 548.284363,464.837921 548.280396,471.712769 
        C548.256775,512.205811 548.235413,552.698914 548.218506,593.191956 
        C548.214905,601.748962 546.878357,603.115417 538.437744,603.114136 
        C487.113220,603.106628 435.788727,603.091309 384.464233,603.125488 
        C382.775269,603.126587 380.841431,602.481934 379.086639,604.386292 
        C382.338348,608.633057 385.905945,612.635681 388.715454,617.113892 
        C393.036530,624.001343 399.014069,625.849487 406.866669,625.787598 
        C445.857849,625.480225 484.852539,625.637329 523.845886,625.571838 
        C529.672058,625.562073 535.497192,625.221680 541.323730,625.069092 
        C544.438110,624.987549 547.600464,626.042725 547.862976,629.227661 
        C548.416077,635.939087 549.588318,642.794739 546.410522,650.073914 
      M390.621277,576.637451 
        C409.307861,576.366394 428.026825,577.295288 447.268951,575.065491 
        C425.943634,543.772583 402.853516,514.176758 379.463654,483.237854 
        C379.291840,486.100433 379.129333,487.550720 379.128998,489.001099 
        C379.122955,514.957397 379.108704,540.913818 379.160370,566.870056 
        C379.179779,576.623047 379.254028,576.622925 389.164032,576.638367 
        C389.330414,576.638611 389.496826,576.638428 390.621277,576.637451 
      M623.851257,513.280151 
        C622.059753,517.817871 620.268311,522.355591 618.223633,527.534729 
        C628.260681,527.720764 637.265259,528.112610 647.031799,527.334961 
        C642.862366,516.074463 637.448608,506.420776 632.710510,496.436249 
        C632.174927,496.521637 631.639343,496.607056 631.103760,496.692444 
        C628.786804,501.987793 626.469788,507.283142 623.851257,513.280151 
      z"/>
      <path fill="currentColor" opacity="1.000000" stroke="none" 
        d="
      M505.000946,416.350037 
        C495.348389,411.687927 491.478485,402.228333 494.877716,392.410522 
        C497.674164,384.333710 506.982544,379.435486 515.919067,381.338104 
        C526.086304,383.502747 532.234375,391.226593 531.255493,400.909149 
        C530.184570,411.502594 518.572693,421.791382 505.000946,416.350037 
      z"/>
    </svg>